<svg width="489" height="103" viewBox="0 0 489 103" fill="none" xmlns="http://www.w3.org/2000/svg">
<path d="M95.6525 50.2378L91.8193 48.1498C90.1364 39.8911 86.1161 32.5051 80.4753 26.6772C77.2965 23.3738 73.619 20.6001 69.5364 18.4186V15.9877C69.5364 14.71 67.1056 13.5569 63.1788 12.7466C59.5014 11.9675 54.515 11.5 49.03 11.5C47.0978 11.5 45.2279 11.5623 43.4204 11.6558C34.8189 12.1856 28.5236 13.9309 28.5236 15.9566V18.3874C25.7811 19.8522 23.2256 21.5974 20.8571 23.5919C13.5333 29.8249 8.26649 38.3952 6.24078 48.1498L2.40751 50.2378C0.662283 51.1728 -0.27266 53.1362 0.0701528 55.0684L3.56061 74.671C3.90342 76.6656 5.52399 78.1615 7.51853 78.4108L13.3775 79.1276C16.5563 82.5557 20.5766 85.2359 25.2201 87.1993C31.4531 89.8483 38.7768 91.2507 46.6615 91.4688C47.4406 91.5 48.2509 91.5 49.03 91.5C55.0448 91.5 60.7791 90.8455 66.0148 89.5055C72.8711 87.7291 78.8547 84.7372 83.3736 80.4365C83.9034 79.9379 84.4332 79.4081 84.9318 78.8471L90.448 78.3173C92.5049 78.1303 94.1566 76.6032 94.5306 74.5464L97.9899 55.0372C98.3327 53.1362 97.3978 51.1728 95.6525 50.2378Z" fill="url(#paint0_linear_2855_11018)"/>
<path d="M49.0303 80.8104C38.6213 80.8104 30.0821 78.66 24.3478 74.5774C18.7693 70.6195 16.058 64.854 16.058 56.9693C16.058 38.7691 30.8612 23.9658 49.0615 23.9658C67.2617 23.9658 82.065 38.7691 82.065 56.9693C82.065 64.854 79.3536 70.5883 73.7751 74.5774C67.9785 78.66 59.4393 80.8104 49.0303 80.8104Z" fill="white"/>
<path d="M49.0301 73.2064C42.5478 73.2064 36.533 69.4043 33.697 63.5453L38.9327 61.0521C40.8338 64.9789 44.6982 67.4409 49.0301 67.4409C53.362 67.4409 57.2576 65.0101 59.1275 61.0521L64.3631 63.5453C61.5271 69.4043 55.5124 73.2064 49.0301 73.2064Z" fill="#121826"/>
<path d="M137.557 74.151C134.559 74.151 131.785 73.5694 129.235 72.406C126.729 71.198 124.671 69.5201 123.06 67.3725L128.027 61.3993C130.622 64.9787 133.731 66.7685 137.355 66.7685C142.232 66.7685 144.671 63.8825 144.671 58.1107V33.8154V26.5H153.396V57.6409C153.396 63.1443 152.053 67.283 149.369 70.057C146.684 72.7864 142.747 74.151 137.557 74.151Z" fill="#121826"/>
<path d="M176.002 37.2383C181.281 37.2383 185.308 38.5134 188.082 41.0638C190.901 43.5694 192.311 47.3725 192.311 52.4732V73.4799H184.391V69.1174C183.362 70.6834 181.886 71.8915 179.962 72.7416C178.082 73.547 175.801 73.9497 173.116 73.9497C170.431 73.9497 168.082 73.5022 166.069 72.6074C164.056 71.6678 162.49 70.3926 161.371 68.7819C160.297 67.1264 159.76 65.2696 159.76 63.2114C159.76 59.9899 160.946 57.4172 163.317 55.4933C165.733 53.5246 169.514 52.5403 174.66 52.5403H183.921V52.0034C183.921 49.4978 183.161 47.5738 181.639 46.2315C180.163 44.8893 177.948 44.2181 174.995 44.2181C172.982 44.2181 170.991 44.5313 169.022 45.1577C167.098 45.7841 165.465 46.6566 164.123 47.7752L160.834 41.6678C162.713 40.236 164.973 39.1398 167.613 38.3792C170.252 37.6186 173.049 37.2383 176.002 37.2383ZM174.861 67.8423C176.964 67.8423 178.821 67.3725 180.431 66.4329C182.087 65.4485 183.25 64.0615 183.921 62.2718V58.1107H175.264C170.431 58.1107 168.015 59.6991 168.015 62.8758C168.015 64.3971 168.619 65.6051 169.827 66.5C171.035 67.3949 172.713 67.8423 174.861 67.8423Z" fill="#121826"/>
<path d="M214.151 73.9497C211.243 73.9497 208.402 73.5694 205.627 72.8087C202.853 72.0481 200.639 71.0861 198.983 69.9228L202.205 63.547C203.815 64.6208 205.739 65.4933 207.976 66.1644C210.258 66.7908 212.495 67.104 214.688 67.104C219.699 67.104 222.205 65.7841 222.205 63.1443C222.205 61.8915 221.556 61.019 220.258 60.5268C219.006 60.0347 216.97 59.5649 214.151 59.1174C211.198 58.67 208.782 58.1555 206.903 57.5738C205.068 56.9922 203.457 55.9855 202.07 54.5537C200.728 53.0772 200.057 51.0414 200.057 48.4463C200.057 45.0459 201.466 42.3389 204.285 40.3255C207.149 38.2673 210.997 37.2383 215.829 37.2383C218.29 37.2383 220.751 37.5291 223.211 38.1107C225.672 38.6477 227.686 39.3859 229.252 40.3255L226.03 46.7013C222.988 44.9116 219.565 44.0168 215.762 44.0168C213.301 44.0168 211.422 44.3971 210.124 45.1577C208.871 45.8736 208.245 46.8356 208.245 48.0436C208.245 49.3859 208.916 50.3479 210.258 50.9295C211.645 51.4664 213.771 51.981 216.634 52.4732C219.498 52.9206 221.847 53.4351 223.681 54.0168C225.516 54.5984 227.082 55.5828 228.379 56.9698C229.721 58.3568 230.393 60.3255 230.393 62.8758C230.393 66.2315 228.938 68.9161 226.03 70.9295C223.122 72.943 219.162 73.9497 214.151 73.9497Z" fill="#121826"/>
<path d="M257.483 37.2383C260.973 37.2383 264.083 37.9989 266.812 39.5201C269.586 41.0414 271.756 43.189 273.322 45.9631C274.888 48.7371 275.671 51.9362 275.671 55.5604C275.671 59.1846 274.888 62.406 273.322 65.2248C271.756 67.9989 269.586 70.1465 266.812 71.6678C264.083 73.189 260.973 73.9497 257.483 73.9497C252.651 73.9497 248.825 72.3389 246.007 69.1174V86.5H237.617V37.6409H245.604V42.3389C246.991 40.6387 248.691 39.3635 250.705 38.5134C252.763 37.6633 255.022 37.2383 257.483 37.2383ZM256.543 66.7685C259.631 66.7685 262.159 65.7394 264.127 63.6812C266.141 61.623 267.147 58.9161 267.147 55.5604C267.147 52.2047 266.141 49.4978 264.127 47.4396C262.159 45.3814 259.631 44.3524 256.543 44.3524C254.53 44.3524 252.718 44.8221 251.107 45.7617C249.496 46.6566 248.221 47.9541 247.282 49.6544C246.342 51.3546 245.872 53.3233 245.872 55.5604C245.872 57.7975 246.342 59.7662 247.282 61.4664C248.221 63.1667 249.496 64.4866 251.107 65.4262C252.718 66.321 254.53 66.7685 256.543 66.7685Z" fill="#121826"/>
<path d="M317.318 55.7617C317.318 56.3434 317.274 57.1711 317.184 58.245H289.063C289.556 60.8848 290.831 62.9877 292.889 64.5537C294.992 66.0749 297.587 66.8356 300.674 66.8356C304.611 66.8356 307.855 65.538 310.406 62.943L314.902 68.1107C313.292 70.0347 311.256 71.4888 308.795 72.4732C306.334 73.4575 303.56 73.9497 300.473 73.9497C296.535 73.9497 293.068 73.1667 290.07 71.6007C287.072 70.0347 284.746 67.8647 283.09 65.0906C281.479 62.2718 280.674 59.0951 280.674 55.5604C280.674 52.0705 281.457 48.9385 283.023 46.1644C284.634 43.3456 286.849 41.1532 289.667 39.5872C292.486 38.0213 295.663 37.2383 299.198 37.2383C302.688 37.2383 305.797 38.0213 308.526 39.5872C311.301 41.1085 313.448 43.2785 314.969 46.0973C316.535 48.8714 317.318 52.0928 317.318 55.7617ZM299.198 43.9497C296.513 43.9497 294.231 44.755 292.352 46.3658C290.518 47.9318 289.399 50.0347 288.996 52.6745H309.332C308.974 50.0794 307.878 47.9765 306.043 46.3658C304.209 44.755 301.927 43.9497 299.198 43.9497Z" fill="#121826"/>
<path d="M333.363 42.8758C335.779 39.1174 340.03 37.2383 346.115 37.2383V45.2248C345.399 45.0906 344.75 45.0235 344.169 45.0235C340.903 45.0235 338.352 45.9855 336.518 47.9094C334.683 49.7886 333.766 52.5179 333.766 56.0973V73.4799H325.377V37.6409H333.363V42.8758Z" fill="#121826"/>
<line x1="367.115" y1="26.5" x2="367.115" y2="86.5" stroke="#D4DCE5" stroke-width="2"/>
<path d="M426.652 73H434.968L414.772 26.8H406.786L386.392 73H394.51L398.932 62.572H422.23L426.652 73ZM401.836 55.642L410.548 35.116L419.26 55.642H401.836ZM448.253 44.884V37.888H440.663V73H448.253V54.652C448.847 48.646 453.335 44.488 460.397 44.884V37.624C454.853 37.624 450.629 40.132 448.253 44.884ZM484.589 64.948C482.543 65.938 480.893 66.466 479.309 66.466C476.933 66.466 475.547 65.344 475.547 61.714V44.884H485.909V39.208H475.547V29.572H468.023V39.208H463.073V44.884H468.023V63.1C468.023 70.294 472.577 73.33 477.857 73.33C480.827 73.33 483.731 72.406 486.503 70.756L484.589 64.948Z" fill="#121826"/>
<defs>
<linearGradient id="paint0_linear_2855_11018" x1="25.2456" y1="84.6891" x2="78.8342" y2="26.3488" gradientUnits="userSpaceOnUse">
<stop stop-color="#FF61D3"/>
<stop offset="0.5" stop-color="#B318FF"/>
<stop offset="1" stop-color="#00F0FF"/>
</linearGradient>
</defs>
</svg>
