<svg width="157" height="18" viewBox="0 0 157 18" fill="none" xmlns="http://www.w3.org/2000/svg">
<path d="M11.4912 14H13.8375L8.13936 0.965H5.88617L0.132147 14H2.42258L3.67022 11.0578H10.2436L11.4912 14ZM4.48956 9.10256L6.94759 3.3113L9.40562 9.10256H4.48956ZM17.5857 6.06727V4.0934H15.4442V14H17.5857V8.82324C17.7533 7.12869 19.0195 5.95554 21.012 6.06727V4.01891C19.4478 4.01891 18.256 4.72653 17.5857 6.06727ZM27.8378 11.7282C27.2605 12.0075 26.795 12.1565 26.3481 12.1565C25.6777 12.1565 25.2866 11.8399 25.2866 10.8157V6.06727H28.2102V4.46583H25.2866V1.7471H23.1638V4.46583H21.7672V6.06727H23.1638V11.2068C23.1638 13.2365 24.4487 14.0931 25.9384 14.0931C26.7764 14.0931 27.5957 13.8324 28.3778 13.3669L27.8378 11.7282ZM42.9217 7.01696L44.0949 5.63898C43.1824 4.59618 41.7858 4.01891 39.9982 4.01891C37.056 4.01891 35.0076 6.06727 35.0076 9.06532C35.0076 12.0448 37.056 14.0745 39.9982 14.0745C41.8789 14.0745 43.3128 13.4041 44.2066 12.231L43.0148 11.0392C42.3445 11.8213 41.3389 12.231 40.0913 12.231C38.3781 12.231 37.1491 10.9461 37.1491 9.06532C37.1491 7.18456 38.3781 5.89968 40.0913 5.89968C41.283 5.88106 42.2327 6.30935 42.9217 7.01696ZM48.5911 6.06727V4.0934H46.4496V14H48.5911V8.82324C48.7587 7.12869 50.0249 5.95554 52.0174 6.06727V4.01891C50.4532 4.01891 49.2614 4.72653 48.5911 6.06727ZM57.8562 4.01891C54.9141 4.03754 52.8471 6.06727 52.8471 9.06532C52.8471 12.0448 54.8582 14.0745 57.9121 14.0745C59.6253 14.0745 61.0405 13.46 62.0088 12.3986L60.8729 11.1882C60.1467 11.933 59.1597 12.3427 58.0797 12.3427C56.5155 12.3427 55.3424 11.393 55.0072 9.86604H62.493C62.7537 6.29073 61.3385 4.01891 57.8562 4.01891ZM54.9699 8.30184C55.1934 6.71902 56.3107 5.73209 57.8749 5.73209C59.4949 5.73209 60.5564 6.7004 60.6308 8.30184H54.9699ZM72.77 14L72.7513 7.50112C72.7327 5.32241 71.2989 4.01891 68.7477 4.01891C66.867 4.01891 65.8614 4.44721 64.4834 5.26655L65.3586 6.75626C66.3456 6.08589 67.3325 5.75071 68.2822 5.75071C69.8464 5.75071 70.6471 6.49556 70.6471 7.7432V8.04114H67.6491C65.2655 8.05976 63.9062 9.21429 63.9062 11.0206C63.9062 12.771 65.2469 14.0931 67.3884 14.0931C68.8222 14.0931 69.9581 13.6648 70.6657 12.7896V14H72.77ZM67.8353 12.3986C66.6435 12.3986 65.9173 11.8213 65.9173 10.9275C65.9173 9.97777 66.569 9.60534 67.9656 9.60534H70.6471V10.5178C70.5354 11.5978 69.3622 12.3986 67.8353 12.3986ZM80.7015 11.7282C80.1243 12.0075 79.6587 12.1565 79.2118 12.1565C78.5415 12.1565 78.1504 11.8399 78.1504 10.8157V6.06727H81.074V4.46583H78.1504V1.7471H76.0276V4.46583H74.631V6.06727H76.0276V11.2068C76.0276 13.2365 77.3124 14.0931 78.8022 14.0931C79.6401 14.0931 80.4595 13.8324 81.2416 13.3669L80.7015 11.7282ZM87.1886 4.01891C84.2464 4.03754 82.1795 6.06727 82.1795 9.06532C82.1795 12.0448 84.1906 14.0745 87.2445 14.0745C88.9577 14.0745 90.3729 13.46 91.3412 12.3986L90.2053 11.1882C89.4791 11.933 88.4921 12.3427 87.4121 12.3427C85.8479 12.3427 84.6747 11.393 84.3396 9.86604H91.8254C92.0861 6.29073 90.6708 4.01891 87.1886 4.01891ZM84.3023 8.30184C84.5258 6.71902 85.6431 5.73209 87.2073 5.73209C88.8273 5.73209 89.8887 6.7004 89.9632 8.30184H84.3023ZM101.358 0.1829V5.80657C100.631 4.65204 99.4395 4.00029 97.8381 4.00029C95.0448 4.00029 93.1268 6.03003 93.1268 9.00946C93.1268 12.0261 95.0262 14.0931 97.8753 14.0931C99.4581 14.0931 100.65 13.46 101.358 12.3054V14H103.499V0.1829H101.358ZM98.3222 12.3054C96.5159 12.3054 95.2869 10.9647 95.2683 9.08394C95.2869 7.18456 96.5346 5.82519 98.3222 5.82519C100.11 5.82519 101.358 7.16594 101.358 9.08394C101.358 10.9647 100.11 12.3054 98.3222 12.3054ZM118.032 4.01891C116.486 4.01891 115.295 4.65204 114.568 5.80657V0.1829H112.427V14H114.568V12.2868C115.295 13.4414 116.486 14.0745 118.069 14.0745C120.9 14.0745 122.762 12.0448 122.762 9.08394C122.762 6.06727 120.844 4.01891 118.032 4.01891ZM117.585 12.2496C115.816 12.2496 114.568 10.9275 114.568 9.00946C114.568 7.14731 115.816 5.80657 117.585 5.80657C119.354 5.80657 120.602 7.16594 120.602 9.00946C120.602 10.9088 119.354 12.2496 117.585 12.2496ZM128.519 15.3594L133.025 4.0934H130.884L128.128 11.5978L125.167 4.0934H122.951L127.048 13.851L126.712 14.5959C126.377 15.3407 125.856 15.6946 125.204 15.6946C124.757 15.6946 124.385 15.5456 123.919 15.2104L123.007 16.8677C123.696 17.445 124.403 17.7057 125.297 17.7057C126.787 17.7057 127.904 16.9236 128.519 15.3594ZM149.897 14H152.243L146.545 0.965H144.292L138.538 14H140.829L142.076 11.0578H148.65L149.897 14ZM142.896 9.10256L145.354 3.3113L147.812 9.10256H142.896ZM153.98 0.965V14H156.178V0.965H153.98Z" fill="white"/>
</svg>
