<svg width="24" height="24" viewBox="0 0 24 24" fill="none" xmlns="http://www.w3.org/2000/svg">
<path d="M13.2663 3.00015C9.96213 3.00015 7.07904 4.85215 5.58484 7.56692H5.75322C6.36345 7.56692 6.97383 7.77743 7.45783 8.17715C8.65747 6.22004 10.8039 4.91513 13.2663 4.91513C17.0333 4.91513 20.0848 7.96663 20.0848 11.7337C20.0848 15.5008 17.0122 18.5523 13.2663 18.5523C11.8353 18.5523 10.5094 18.1103 9.39397 17.3527L8.48911 19.0363C9.85696 19.9202 11.4985 20.4463 13.2663 20.4463C18.0856 20.4463 22 16.532 22 11.7126C21.9999 6.91437 18.0856 3 13.2663 3L13.2663 3.00015Z" fill="black"/>
<path d="M13.2662 6.85119C12.7401 6.85119 12.3192 7.27205 12.3192 7.79818L12.3191 11.7336C12.3191 12.2597 12.74 12.6806 13.2661 12.6806H16.4018C16.928 12.6806 17.3488 12.2597 17.3488 11.7336C17.3488 11.2075 16.928 10.7866 16.4018 10.7866H14.2132V7.79821C14.2132 7.27209 13.7924 6.85107 13.2662 6.85107L13.2662 6.85119Z" fill="black"/>
<path d="M8.13128 13.228L6.78439 13.4385C6.63701 13.4595 6.48977 13.3332 6.48977 13.186V10.2186C6.48977 9.46098 5.45853 9.18736 5.10076 9.86086L2.09125 15.522C1.79662 16.0481 2.25963 16.6795 2.84887 16.5952L4.19575 16.3847C4.34314 16.3637 4.49037 16.49 4.49037 16.6372V19.6046C4.49037 20.3622 5.52162 20.6358 5.87938 19.9623L8.9099 14.3012C9.18353 13.7543 8.74152 13.1229 8.13128 13.2281V13.228Z" fill="black"/>
</svg>
