<svg width="24" height="24" viewBox="0 0 24 24" fill="none" xmlns="http://www.w3.org/2000/svg">
<path d="M20.2921 10.4001H13.5999V3.70795C13.5999 2.76792 12.832 2 11.892 2H3.70795C2.76792 2 2 2.76792 2 3.70795V11.892C2 12.832 2.76792 13.5999 3.70795 13.5999H10.4001V20.2921C10.4001 21.2321 11.1682 22 12.108 22H20.2921C21.2361 22 22 21.2319 22 20.2921V12.108C22 11.168 21.2321 10.4001 20.2921 10.4001V10.4001ZM3.70803 12.8001C3.20797 12.8001 2.79997 12.3921 2.79997 11.892V3.70803C2.79997 3.20797 3.20795 2.79997 3.70803 2.79997H11.892C12.3921 2.79997 12.8001 3.20795 12.8001 3.70803V10.4002H12.108C11.168 10.4002 10.4001 11.1681 10.4001 12.1081V12.8002L3.70803 12.8001ZM21.2002 20.292C21.2002 20.792 20.7922 21.2 20.2921 21.2H12.1081C11.6081 21.2 11.2001 20.792 11.2001 20.292V12.108C11.2001 11.6079 11.6081 11.1999 12.1081 11.1999H20.2921C20.7922 11.1999 21.2002 11.6079 21.2002 12.108V20.292Z" fill="black" stroke="black"/>
<path d="M10.0882 9.87609C9.40014 9.7281 8.82023 9.34003 8.3443 8.87615C8.96423 8.11209 9.34828 7.3281 9.52438 6.92816H10.6084C10.8283 6.92816 11.0083 6.74819 11.0083 6.52821C11.0083 6.30824 10.8283 6.12827 10.6084 6.12827L8.20018 6.1281V5.33207C8.20018 5.11209 8.02021 4.93213 7.80023 4.93213C7.58025 4.93213 7.40029 5.11209 7.40029 5.33207V6.1281H4.99626C4.77628 6.1281 4.59631 6.30807 4.59631 6.52805C4.59631 6.74802 4.77628 6.92799 4.99626 6.92799H6.08024C6.25217 7.32392 6.64022 8.11192 7.26032 8.87598C6.78439 9.34004 6.20029 9.72794 5.51641 9.87592C5.30045 9.92397 5.16435 10.1359 5.21239 10.3519C5.25241 10.5399 5.42032 10.6679 5.60447 10.6679C5.63243 10.6679 5.66055 10.6639 5.68851 10.6599C6.53644 10.4759 7.23655 10.0159 7.80458 9.46794C8.37261 10.0118 9.07256 10.4719 9.92066 10.6599C9.94861 10.6679 9.97674 10.6679 10.0047 10.6679C10.1887 10.6679 10.3527 10.5399 10.3968 10.3519C10.4403 10.1361 10.3042 9.92395 10.0882 9.87605L10.0882 9.87609ZM8.63625 6.92799C8.45628 7.28792 8.1802 7.77994 7.80019 8.26796C7.42017 7.77994 7.14409 7.28794 6.96413 6.92799H8.63625Z" fill="black"/>
<path d="M16.5682 13.2478C16.5043 13.0998 16.3603 13.0039 16.2002 13.0039C16.0402 13.0039 15.8922 13.0998 15.8323 13.2478L14.2082 17.1239L13.4922 18.8398C13.4081 19.0439 13.5042 19.2798 13.7081 19.3638C13.7602 19.3838 13.8121 19.3958 13.8642 19.3958C14.0202 19.3958 14.1682 19.3037 14.2321 19.1519L14.8482 17.6839H17.5603L18.1763 19.1519C18.2604 19.356 18.4963 19.4519 18.7003 19.3679C18.9044 19.2838 19.0004 19.0479 18.9163 18.8439L16.5682 13.2478ZM15.1802 16.8838L16.2002 14.4398L17.2203 16.8838H15.1802Z" fill="black"/>
</svg>
